<svg xmlns="http://www.w3.org/2000/svg" viewBox="0 0 701.32 196"><title>usign-logoAtivo 1</title><g id="Camada_2" data-name="Camada 2"><g id="Layer_1" data-name="Layer 1"><path d="M373,59.43c0-9.38,8.82-15.94,20.07-15.94,16.7,0,29.45,11.63,29.45,11.63l10.51-19.7S419.56,21.16,393.3,21.16c-25.51,0-44.65,16.51-44.65,38.65,0,40.89,62.84,36.76,62.84,60.59,0,10.88-9.19,16.13-19.32,16.13-18.76,0-33.2-14.07-33.2-14.07l-13.13,18.2s16.32,18.19,46,18.19c27.76,0,43.9-17.82,43.9-39C435.7,77.25,373,83.07,373,59.43Z" fill="#3e2367"/><path d="M280,0H40A40,40,0,0,0,0,40V180H280a40,40,0,0,0,40-40V40A40,40,0,0,0,280,0Zm5.19,156.6H262.34V145.54a60.09,60.09,0,0,1,.37-6.57h-.37c-4.13,8.07-14.64,19.88-34,19.88h-.09a33.11,33.11,0,0,1-33.11-33.11V60.93h23.64v55.63a21.28,21.28,0,0,0,41.71,6,46.45,46.45,0,0,0,.87-9.7V60.93h23.82Z" fill="#3e2367"/><rect x="454.14" y="27.98" width="23.64" height="23.64" fill="#3e2367"/><path d="M668.21,58.68h-.09c-19.33,0-29.83,11.82-34,19.89h-.37a60.33,60.33,0,0,0,.37-6.57V60.93H611.28V156.6H635.1V104.71A47,47,0,0,1,636,95a21.29,21.29,0,0,1,41.72,6V156.6h23.64V91.79A33.11,33.11,0,0,0,668.21,58.68Z" fill="#3e2367"/><rect x="454.14" y="60.93" width="23.82" height="95.67" fill="#3e2367"/><path d="M567.32,71.41C559.8,63.5,549.87,58.68,539,58.68c-23.51,0-42.57,22.43-42.57,50.09s19.06,50.08,42.57,50.08c10.26,0,19.67-4.27,27-11.39v5c0,17.07-12.38,23.26-27,23.26a64.32,64.32,0,0,1-26.45-6.19l-7.13,18.19a76.25,76.25,0,0,0,34,8.26c25,0,50.46-12.38,50.46-45.21V60.93H567.51ZM543.5,138.6c-12.75,0-23.08-13.36-23.08-29.83s10.33-29.83,23.08-29.83,23.07,13.35,23.07,29.83S556.24,138.6,543.5,138.6Z" fill="#3e2367"/></g></g></svg>